# xmcd
#
# Track frame offsets: 
#        182
#        17372
#        31775
#        50182
#        68482
#        82877
#        98962
#        116762
#        134000
#        156427
#
# Disc length: 2261 seconds
#
# Revision: 3
# Processed by: cddbd v1.5.2PL0 Copyright (c) Steve Scherf et al.
# Submitted via: ExactAudioCopy v1.0b1
#
DISCID=7e08d30a
DTITLE=Jenny Morris - Shiver US Giant
DYEAR=1989
DGENRE=Rock
TTITLE0=Saved Me (U.K. Shake Mix)
TTITLE1=Bag Lady
TTITLE2=She Has To Be Loved
TTITLE3=You I Know
TTITLE4=Street Of Love
TTITLE5=Self Deceiver
TTITLE6=Little Little
TTITLE7=Land Of The Long White Cloud Aotearoa
TTITLE8=Light Hearted
TTITLE9=Shiver
EXTD=
EXTT0=
EXTT1=
EXTT2=
EXTT3=
EXTT4=
EXTT5=
EXTT6=
EXTT7=
EXTT8=
EXTT9=
PLAYORDER=
